<svg width="53" height="46" viewBox="0 0 53 46" fill="none" xmlns="http://www.w3.org/2000/svg">
<g id="Frame" clip-path="url(#clip0_13_789)">
<g id="Group">
<path id="Vector" fill-rule="evenodd" clip-rule="evenodd" d="M50.023 44.284L40.95 45.957C39.634 46.2 38.315 45.332 38.064 44.058C36.454 35.879 31.883 12.669 30.316 4.70703V43.131C30.316 44.427 29.187 45.519 27.848 45.519H18.612C17.273 45.519 16.145 44.427 16.145 43.131V2.87003C16.145 1.57303 17.273 0.481033 18.612 0.481033H27.848C29.258 0.481033 30.316 1.57303 30.316 2.87003V3.50103C30.546 2.62503 31.277 1.89403 32.238 1.71703L41.311 0.043033C42.627 -0.199967 43.946 0.668033 44.197 1.94203L51.984 41.49C52.235 42.764 51.338 44.041 50.023 44.284ZM28.905 2.87003C28.905 2.32403 28.482 1.84603 27.848 1.84603H18.612C18.048 1.84603 17.555 2.32403 17.555 2.87003V30.642H28.905V2.87003ZM28.905 32.007H17.555V43.131C17.555 43.676 18.048 44.154 18.612 44.154H27.848C28.482 44.154 28.905 43.676 28.905 43.131V32.007ZM42.812 2.19803C42.706 1.66103 42.129 1.28103 41.575 1.38403L32.502 3.05703C31.879 3.17203 31.556 3.71803 31.662 4.25403L37.034 31.536L48.184 29.479L42.812 2.19803ZM48.448 30.82L37.298 32.877L39.449 43.803C39.555 44.339 40.132 44.719 40.686 44.617L49.759 42.943C50.313 42.841 50.705 42.282 50.599 41.746L48.448 30.82ZM44.567 40.636C42.559 41.006 40.663 39.758 40.28 37.815C39.897 35.871 41.186 34.035 43.195 33.664C45.203 33.294 47.099 34.542 47.482 36.486C47.865 38.43 46.576 40.265 44.567 40.636ZM46.097 36.741C45.873 35.602 44.636 34.788 43.459 35.005C42.281 35.222 41.441 36.42 41.665 37.559C41.889 38.699 43.057 39.525 44.303 39.295C45.55 39.065 46.322 37.881 46.097 36.741ZM23.265 40.947C21.221 40.947 19.599 39.377 19.599 37.398C19.599 35.419 21.221 33.85 23.265 33.85C25.31 33.85 26.932 35.419 26.932 37.398C26.932 39.377 25.31 40.947 23.265 40.947ZM23.265 35.215C22.067 35.215 21.009 36.238 21.009 37.398C21.009 38.558 21.996 39.582 23.265 39.582C24.534 39.582 25.521 38.558 25.521 37.398C25.521 36.238 24.464 35.215 23.265 35.215ZM11.703 45.519H2.467C1.128 45.519 0 44.427 0 43.131V2.87003C0 1.57303 1.128 0.481033 2.467 0.481033H11.703C13.113 0.481033 14.171 1.57303 14.171 2.87003V43.131C14.171 44.427 13.043 45.519 11.703 45.519ZM12.761 2.87003C12.761 2.32403 12.267 1.84603 11.703 1.84603H2.467C1.904 1.84603 1.41 2.32403 1.41 2.87003V30.642H12.761V2.87003ZM12.761 32.007H1.41V43.131C1.41 43.676 1.904 44.154 2.467 44.154H11.703C12.338 44.154 12.761 43.676 12.761 43.131V32.007ZM7.191 40.947C5.147 40.947 3.525 39.377 3.525 37.398C3.525 35.419 5.147 33.85 7.191 33.85C9.236 33.85 10.857 35.419 10.857 37.398C10.857 39.377 9.236 40.947 7.191 40.947ZM7.191 35.215C5.993 35.215 4.935 36.238 4.935 37.398C4.935 38.558 5.922 39.582 7.191 39.582C8.46 39.582 9.447 38.558 9.447 37.398C9.447 36.238 8.39 35.215 7.191 35.215Z" fill="#00A8FF"/>
</g>
</g>
<defs>
<clipPath id="clip0_13_789">
<rect width="53" height="46" fill="white"/>
</clipPath>
</defs>
</svg>
