<svg width="46" height="46" viewBox="0 0 46 46" fill="none" xmlns="http://www.w3.org/2000/svg">
<g id="Frame" clip-path="url(#clip0_13_771)">
<g id="Group">
<path id="Vector" fill-rule="evenodd" clip-rule="evenodd" d="M16.518 4.391C16.518 3.973 16.797 3.694 17.215 3.694H22.582C23 3.694 23.279 3.973 23.279 4.391V9.897C23.279 10.315 23 10.594 22.582 10.594H17.215C16.867 10.594 16.518 10.315 16.518 9.897V4.391ZM17.912 9.2H21.885V5.088H17.912V9.2ZM16.518 13.521C16.518 13.103 16.797 12.824 17.215 12.824H22.582C23 12.824 23.279 13.103 23.279 13.521V19.027C23.279 19.446 23 19.724 22.582 19.724H17.215C16.797 19.724 16.518 19.446 16.518 19.027V13.521ZM17.912 18.4H21.885V14.288H17.912V18.4ZM17.215 30.806H22.582C23 30.806 23.279 31.085 23.279 31.503V37.009C23.279 37.427 23 37.706 22.582 37.706H17.215C16.797 37.706 16.518 37.427 16.518 37.009V31.503C16.518 31.085 16.797 30.806 17.215 30.806ZM17.912 36.312H21.885V32.2H17.912V36.312ZM16.518 22.512C16.518 22.094 16.797 21.815 17.215 21.815H22.582C23 21.815 23.279 22.094 23.279 22.512V28.018C23.279 28.436 23 28.715 22.582 28.715H17.215C16.797 28.715 16.518 28.436 16.518 28.018V22.512ZM17.912 27.321H21.885V23.209H17.912V27.321ZM12.615 12.824C13.033 12.824 13.312 13.103 13.312 13.521V19.027C13.312 19.446 13.033 19.724 12.615 19.724H7.249C6.83 19.724 6.551 19.446 6.552 19.027V13.521C6.552 13.103 6.83 12.824 7.249 12.824H12.615ZM7.945 18.4H11.918V14.288H7.945V18.4ZM6.552 4.391C6.552 3.973 6.83 3.694 7.249 3.694H12.615C13.033 3.694 13.312 3.973 13.312 4.391V9.897C13.312 10.315 13.033 10.594 12.615 10.594H7.249C6.9 10.594 6.551 10.315 6.552 9.897V4.391ZM7.945 9.2H11.918V5.088H7.945V9.2ZM45.303 46C45.094 46 0.697 46 0.697 46C0.279 46 0 45.721 0 45.303C0 44.885 0.279 44.606 0.697 44.606L5.367 44.536C5.367 41.679 5.367 41.47 5.367 37.567C2.37 37.288 0 34.709 0 31.573C0 28.506 4.949 21.536 5.506 20.84C5.785 20.491 6.342 20.491 6.621 20.84C7.179 21.606 12.127 28.506 12.127 31.642C12.127 34.709 9.758 37.288 6.761 37.636V40.355H26.345V1.394H3.555V20.142C3.555 20.561 3.276 20.84 2.858 20.84C2.44 20.84 2.161 20.561 2.161 20.142V0.697C2.161 0.279 2.439 0 2.858 0H27.043C27.461 0 27.739 0.279 27.739 0.697V18.4H45.303C45.721 18.4 46 18.679 46 19.097V45.303C46 45.721 45.721 46 45.303 46ZM10.733 31.573C10.733 29.621 7.736 24.812 6.064 22.373C4.391 24.812 1.394 29.552 1.394 31.573C1.394 33.942 3.137 35.894 5.367 36.242V32.13C5.367 31.712 5.645 31.434 6.064 31.434C6.482 31.434 6.761 31.712 6.761 32.13V36.173C8.991 35.824 10.733 33.942 10.733 31.573ZM26.345 41.749H6.761V44.606H26.345V41.749ZM33.733 44.536V44.606H38.612V33.942H33.733V44.536ZM44.606 19.794H27.739V44.606H32.339V33.246C32.339 32.827 32.618 32.549 33.036 32.549H39.309C39.727 32.549 40.006 32.827 40.006 33.246V44.606H44.606V19.794ZM36.939 27.53V23C36.939 22.582 37.218 22.303 37.636 22.303H42.167C42.585 22.303 42.864 22.582 42.864 23V27.53C42.864 27.949 42.585 28.227 42.167 28.227H37.636C37.218 28.227 36.939 27.949 36.939 27.53ZM38.333 26.833H41.47V23.697H38.333V26.833ZM34.848 28.227H30.318C29.97 28.227 29.621 27.949 29.621 27.53V23C29.621 22.582 29.9 22.303 30.318 22.303H34.848C35.267 22.303 35.545 22.582 35.545 23V27.53C35.545 27.949 35.267 28.227 34.848 28.227ZM34.152 23.697H31.015V26.833H34.152V23.697Z" fill="#00A8FF"/>
</g>
</g>
<defs>
<clipPath id="clip0_13_771">
<rect width="46" height="46" fill="white"/>
</clipPath>
</defs>
</svg>
