<svg width="36" height="46" viewBox="0 0 36 46" fill="none" xmlns="http://www.w3.org/2000/svg">
<g id="Frame" clip-path="url(#clip0_13_780)">
<g id="Group">
<path id="Vector" fill-rule="evenodd" clip-rule="evenodd" d="M35.061 46C34.543 46 34.123 45.589 34.123 45.082V38.018C34.123 36.757 33.309 35.622 32.098 35.191L26.009 33.026L23.474 36.744C23.15 37.219 22.631 37.524 22.05 37.58C21.985 37.587 21.921 37.59 21.856 37.59C21.343 37.59 20.852 37.393 20.485 37.033L18.939 35.521V45.082C18.939 45.589 18.518 46 18 46C17.482 46 17.061 45.589 17.061 45.082V35.521L15.515 37.033C15.148 37.392 14.656 37.59 14.144 37.59C14.079 37.59 14.015 37.587 13.95 37.58C13.369 37.524 12.849 37.219 12.525 36.744L9.991 33.026L3.902 35.191C2.691 35.621 1.877 36.757 1.877 38.018V45.082C1.877 45.589 1.457 46 0.939 46C0.42 46 0 45.589 0 45.082V38.018C0 35.988 1.31 34.159 3.26 33.466L9.035 31.412C9.016 31.16 9.103 30.903 9.291 30.71L11.04 28.913V25.827C8.585 23.789 7.025 20.697 7.025 17.266V15.194C6.359 13.777 6.022 12.277 6.022 10.733V8.77C6.022 3.935 10.044 0 14.989 0H29.039C29.558 0 29.978 0.412 29.978 0.918V10.733C29.978 12.277 29.64 13.777 28.974 15.194V17.603C28.974 20.558 27.709 23.412 25.504 25.434C25.327 25.596 25.145 25.749 24.96 25.898V28.913L26.708 30.71C26.897 30.903 26.984 31.16 26.964 31.412L32.739 33.466C34.689 34.159 35.999 35.988 36 38.018V45.082C36 45.589 35.58 46 35.061 46ZM21.812 35.735C21.819 35.742 21.834 35.756 21.865 35.754C21.895 35.751 21.907 35.733 21.912 35.726L24.831 31.444L23.892 30.479L19.464 33.439L21.812 35.735ZM18 32.193L23.083 28.796V27.119C21.531 27.915 19.804 28.335 18.009 28.335C17.764 28.335 17.518 28.327 17.271 28.312C15.705 28.213 14.232 27.778 12.917 27.082V28.796L18 32.193ZM14.087 35.726C14.092 35.733 14.104 35.751 14.135 35.754C14.166 35.756 14.181 35.742 14.187 35.735L16.536 33.438L12.108 30.478L11.168 31.444L14.087 35.726ZM27.097 17.603V14.989C27.097 14.851 27.129 14.714 27.19 14.59C27.794 13.367 28.101 12.069 28.101 10.733V1.836H14.989C11.079 1.836 7.899 4.947 7.899 8.77V10.733C7.899 12.069 8.205 13.367 8.809 14.59C8.87 14.714 8.902 14.851 8.902 14.989V17.266C8.902 22.131 12.632 26.178 17.392 26.48C19.942 26.641 22.366 25.794 24.22 24.095C26.075 22.394 27.097 20.088 27.097 17.603ZM11.962 10.519C11.934 10.524 11.913 10.55 11.913 10.581V12.696C11.913 13.203 11.493 13.614 10.975 13.614C10.456 13.614 10.036 13.203 10.036 12.696V10.581C10.036 9.634 10.728 8.845 11.682 8.704C14.711 8.258 22.139 7.594 25.689 11.065C26.055 11.424 26.055 12.005 25.689 12.363C25.322 12.722 24.728 12.722 24.361 12.363C23.107 11.137 20.987 10.418 18.06 10.228C15.573 10.066 13.172 10.341 11.962 10.519ZM6.96 40.239C7.479 40.239 7.899 40.65 7.899 41.157V45.082C7.899 45.589 7.479 46 6.96 46C6.442 46 6.022 45.589 6.022 45.082V41.157C6.022 40.65 6.442 40.239 6.96 40.239ZM29.039 40.239C29.558 40.239 29.978 40.65 29.978 41.157V45.082C29.978 45.589 29.558 46 29.039 46C28.521 46 28.101 45.589 28.101 45.082V41.157C28.101 40.65 28.521 40.239 29.039 40.239Z" fill="#00A8FF"/>
</g>
</g>
<defs>
<clipPath id="clip0_13_780">
<rect width="36" height="46" fill="white"/>
</clipPath>
</defs>
</svg>
