<svg width="22" height="28" viewBox="0 0 22 28" fill="none" xmlns="http://www.w3.org/2000/svg">
<g id="Frame" clip-path="url(#clip0_11_566)">
<path id="Vector" fill-rule="evenodd" clip-rule="evenodd" d="M21.804 13.331C21.799 13.372 21.776 13.495 21.73 13.707C21.563 14.47 21.316 15.209 20.994 15.919C19.809 18.767 17.199 23.14 11.489 27.824C11.345 27.941 11.172 28 11 28C10.828 28 10.655 27.941 10.511 27.824C4.796 23.14 2.191 18.767 1.006 15.919C0.684 15.209 0.437 14.464 0.27 13.707C0.224 13.495 0.201 13.372 0.196 13.331C0.063 12.638 0 11.928 0 11.223C0 5.036 4.934 0 10.994 0C17.055 0 21.988 5.036 22 11.223C22 11.928 21.931 12.638 21.804 13.331ZM10.994 1.579C5.79 1.579 1.553 5.905 1.553 11.218C1.553 11.834 1.61 12.445 1.725 13.049C1.725 13.067 1.731 13.078 1.731 13.09C1.737 13.12 1.748 13.208 1.783 13.343C1.783 13.348 1.783 13.348 1.783 13.354C1.932 14.012 2.145 14.657 2.421 15.268C2.427 15.274 2.427 15.285 2.432 15.291C3.508 17.892 5.865 21.86 10.994 26.186C16.123 21.86 18.481 17.892 19.556 15.291C19.562 15.285 19.562 15.274 19.568 15.268C19.849 14.652 20.062 14.012 20.206 13.354C20.206 13.348 20.206 13.348 20.206 13.343C20.235 13.208 20.252 13.12 20.258 13.09C20.258 13.078 20.263 13.067 20.263 13.055C20.379 12.456 20.436 11.84 20.436 11.218C20.436 5.905 16.198 1.579 10.994 1.579ZM10.994 18.473C7.147 18.473 4.014 15.274 4.014 11.347C4.014 7.42 7.147 4.221 10.994 4.221C14.841 4.221 17.975 7.42 17.975 11.347C17.975 15.274 14.841 18.473 10.994 18.473ZM10.994 5.805C8.004 5.805 5.566 8.294 5.566 11.347C5.566 14.399 7.999 16.888 10.994 16.888C13.99 16.888 16.422 14.399 16.422 11.347C16.422 8.294 13.984 5.805 10.994 5.805Z" fill="#A6A6A6"/>
</g>
<defs>
<clipPath id="clip0_11_566">
<rect width="22" height="28" fill="white"/>
</clipPath>
</defs>
</svg>
