<svg width="30" height="24" viewBox="0 0 30 24" fill="none" xmlns="http://www.w3.org/2000/svg">
<g id="Frame" clip-path="url(#clip0_11_614)">
<path id="Vector" fill-rule="evenodd" clip-rule="evenodd" d="M25.657 12.194L23.983 13.337C23.683 13.545 23.269 13.469 23.062 13.157C22.855 12.855 22.94 12.449 23.241 12.241L25.939 10.398C26.183 10.209 26.531 10.218 26.776 10.427L29.276 12.6C29.549 12.836 29.577 13.252 29.342 13.535C29.098 13.809 28.684 13.838 28.402 13.601L26.973 12.354C26.963 12.77 26.926 13.176 26.869 13.592C26.785 14.244 26.644 14.895 26.437 15.548C25.459 18.713 23.297 21.189 20.589 22.616C17.881 24.052 14.628 24.439 11.478 23.457C9.51403 22.843 7.81203 21.765 6.46703 20.386C5.07603 18.95 4.06103 17.183 3.52503 15.265C3.42103 14.915 3.62803 14.547 3.97603 14.443C4.33303 14.339 4.70003 14.547 4.79403 14.906C5.28303 16.606 6.18503 18.185 7.41703 19.451C8.61103 20.689 10.115 21.643 11.864 22.182C14.666 23.06 17.561 22.711 19.968 21.445C22.375 20.169 24.302 17.977 25.176 15.161C25.355 14.575 25.477 13.99 25.562 13.413C25.619 13.006 25.647 12.6 25.657 12.194ZM26.475 8.73498C26.578 9.08498 26.371 9.45298 26.014 9.55798C25.666 9.65198 25.3 9.45298 25.196 9.09398C24.716 7.38398 23.814 5.81498 22.573 4.53998C21.379 3.31198 19.875 2.35798 18.136 1.80898C15.324 0.939979 12.438 1.28898 10.022 2.55598C7.61503 3.83098 5.68703 6.02398 4.82203 8.83898C4.64403 9.42398 4.51203 10.001 4.43703 10.587C4.38103 10.993 4.35203 11.399 4.34303 11.796L6.01603 10.662C6.31703 10.455 6.73003 10.53 6.92803 10.833C7.13503 11.135 7.06003 11.551 6.75903 11.758L4.05103 13.601C3.80703 13.789 3.45903 13.781 3.22403 13.572L0.72403 11.4C0.45103 11.163 0.42303 10.739 0.65803 10.464C0.89303 10.191 1.31603 10.153 1.58803 10.398L3.01803 11.646C3.03703 11.23 3.06403 10.824 3.12103 10.408C3.21503 9.75598 3.35603 9.10398 3.55403 8.45198C4.54103 5.27698 6.70303 2.80998 9.41103 1.38398C12.119 -0.0520205 15.372 -0.43902 18.522 0.54298C20.486 1.15698 22.179 2.23398 23.523 3.61398C24.914 5.04998 25.929 6.81698 26.475 8.73498Z" fill="#A6A6A6"/>
</g>
<defs>
<clipPath id="clip0_11_614">
<rect width="29" height="24" fill="white" transform="translate(0.5)"/>
</clipPath>
</defs>
</svg>
