<svg width="23" height="27" viewBox="0 0 23 27" fill="none" xmlns="http://www.w3.org/2000/svg">
<g id="Frame" clip-path="url(#clip0_11_562)">
<path id="Vector" fill-rule="evenodd" clip-rule="evenodd" d="M22.7301 23.975C22.6741 24.121 22.5671 24.243 22.4381 24.327C22.2701 24.434 18.2441 27 11.5081 27C4.77206 27 0.746055 24.439 0.578055 24.327C0.444055 24.243 0.343055 24.121 0.287055 23.975C-0.00994515 23.226 -0.00394516 21.733 0.00205484 21.442C0.00205484 21.437 0.00205484 21.431 0.00205484 21.426C0.00705484 21.381 0.00705484 21.336 0.00705484 21.286C0.0410548 20.184 0.114055 17.596 2.54405 16.762C2.56105 16.757 2.57705 16.751 2.60005 16.746C5.13605 16.103 7.22506 14.649 7.24706 14.632C7.58906 14.392 8.05906 14.476 8.30006 14.817C8.54106 15.158 8.45706 15.628 8.11506 15.868C8.02005 15.929 5.79105 17.484 3.00305 18.199C1.69805 18.663 1.55305 20.056 1.51405 21.33C1.51405 21.381 1.50805 21.426 1.50805 21.47C1.49705 21.974 1.53605 22.751 1.62605 23.198C2.53805 23.713 6.11606 25.496 11.5031 25.496C16.9121 25.496 20.4671 23.718 21.3751 23.203C21.4641 22.756 21.4981 21.979 21.4921 21.476C21.4871 21.431 21.4871 21.386 21.4871 21.336C21.4471 20.061 21.3021 18.669 19.9971 18.205C17.2091 17.489 14.9801 15.94 14.8851 15.874C14.5431 15.633 14.4591 15.163 14.7001 14.822C14.9411 14.481 15.4111 14.397 15.7531 14.638C15.7751 14.655 17.8751 16.109 20.4001 16.751C20.4171 16.757 20.4391 16.762 20.4561 16.768C22.8861 17.596 22.9591 20.184 22.9931 21.291C22.9931 21.342 22.9981 21.386 22.9981 21.431C22.9981 21.437 22.9981 21.442 22.9981 21.448C23.0041 21.739 23.0101 23.232 22.7301 23.975ZM11.5811 14.549C11.5641 14.549 11.5421 14.549 11.5251 14.549C11.5141 14.549 11.5031 14.549 11.4921 14.549C11.4581 14.549 11.4301 14.549 11.4021 14.549C9.76106 14.52 8.43406 13.944 7.46005 12.843C5.30406 10.416 5.66305 6.257 5.70205 5.86C5.84205 2.857 7.27506 1.431 8.45106 0.766C9.62106 0.101 10.8421 0 11.4641 0H11.4971C11.5031 0 11.5141 0 11.5201 0H11.5591C12.6901 0.022 13.7031 0.291 14.5711 0.788C15.7361 1.454 17.1471 2.88 17.2871 5.86C17.3261 6.257 17.6841 10.416 15.5291 12.843C14.5491 13.944 13.2221 14.52 11.5811 14.549ZM15.7861 5.999C15.7811 5.988 15.7811 5.971 15.7811 5.954C15.6071 2.164 13.0371 1.549 11.5251 1.515C11.5081 1.515 11.4921 1.515 11.4801 1.515H11.4581C10.2371 1.515 7.38705 1.946 7.20205 5.954C7.20205 5.966 7.19705 5.982 7.19705 5.999C7.19105 6.033 6.81006 9.852 8.58606 11.842C9.28606 12.636 10.2321 13.028 11.4641 13.039C11.4751 13.039 11.4801 13.039 11.4921 13.039C11.5031 13.039 11.5081 13.039 11.5201 13.039C12.7571 13.028 13.6981 12.636 14.4031 11.842C16.1841 9.84 15.7921 6.038 15.7861 5.999Z" fill="#A6A6A6"/>
</g>
<defs>
<clipPath id="clip0_11_562">
<rect width="23" height="27" fill="white"/>
</clipPath>
</defs>
</svg>
