<svg width="68" height="68" viewBox="0 0 68 68" fill="none" xmlns="http://www.w3.org/2000/svg">
<g id="Frame" clip-path="url(#clip0_13_644)">
<path id="Vector" opacity="0.902" fill-rule="evenodd" clip-rule="evenodd" d="M50.463 54.328C51.326 54.328 52.142 54.05 52.824 53.524C53.293 53.161 53.967 53.248 54.33 53.717C54.692 54.187 54.606 54.861 54.136 55.224C53.076 56.043 51.806 56.476 50.463 56.476C47.148 56.476 44.45 53.779 44.45 50.463C44.45 47.148 47.148 44.45 50.463 44.45C53.778 44.45 56.476 47.148 56.476 50.463C56.476 51.056 55.995 51.537 55.402 51.537C54.809 51.537 54.328 51.056 54.328 50.463C54.328 48.332 52.595 46.598 50.463 46.598C48.332 46.598 46.598 48.332 46.598 50.463C46.598 52.595 48.332 54.328 50.463 54.328ZM65.934 54.002L62.829 54.622C62.64 55.185 62.412 55.735 62.148 56.266L63.905 58.901C64.582 59.916 64.447 61.28 63.584 62.144L62.144 63.583C61.281 64.447 59.917 64.582 58.901 63.905L56.266 62.148C55.735 62.412 55.185 62.64 54.623 62.829L54.002 65.934C53.762 67.131 52.702 68 51.481 68H49.445C48.224 68 47.164 67.131 46.925 65.934L46.304 62.829C45.741 62.64 45.191 62.412 44.66 62.148L42.026 63.905C41.01 64.582 39.646 64.447 38.782 63.583L37.343 62.144C36.479 61.281 36.344 59.917 37.021 58.901L38.778 56.266C38.514 55.735 38.286 55.185 38.097 54.623L34.993 54.002C33.795 53.762 32.926 52.702 32.926 51.481V49.445C32.926 48.224 33.795 47.164 34.992 46.925L35.221 46.879C35.803 46.763 36.368 47.14 36.484 47.721C36.601 48.303 36.224 48.868 35.642 48.985L35.414 49.03C35.217 49.07 35.074 49.244 35.074 49.445V51.481C35.074 51.682 35.217 51.857 35.414 51.896L39.145 52.642C39.542 52.721 39.86 53.016 39.969 53.406C40.202 54.241 40.537 55.047 40.962 55.802C41.16 56.154 41.144 56.588 40.919 56.925L38.808 60.091C38.697 60.259 38.719 60.483 38.861 60.625L40.301 62.065C40.443 62.207 40.667 62.229 40.835 62.118L44.001 60.006C44.338 59.782 44.772 59.766 45.124 59.964C45.878 60.389 46.685 60.723 47.52 60.957C47.909 61.066 48.204 61.384 48.284 61.781L49.03 65.512C49.069 65.709 49.244 65.852 49.445 65.852H51.481C51.682 65.852 51.856 65.709 51.896 65.512L52.642 61.781C52.721 61.385 53.016 61.066 53.405 60.958C54.241 60.724 55.047 60.39 55.802 59.965C56.154 59.766 56.588 59.782 56.924 60.007L60.091 62.118C60.258 62.229 60.483 62.207 60.625 62.065L62.065 60.626C62.207 60.483 62.229 60.259 62.118 60.092L60.006 56.925C59.782 56.589 59.766 56.155 59.964 55.802C60.389 55.048 60.723 54.242 60.957 53.406C61.066 53.017 61.384 52.722 61.78 52.643L65.512 51.896C65.709 51.857 65.852 51.682 65.852 51.482V49.445C65.852 49.244 65.709 49.07 65.512 49.03L61.781 48.284C61.384 48.205 61.066 47.91 60.957 47.521C60.723 46.685 60.389 45.879 59.964 45.125C59.766 44.772 59.782 44.338 60.006 44.002L62.118 40.835C62.229 40.668 62.207 40.443 62.065 40.301L60.625 38.862C60.483 38.719 60.259 38.697 60.091 38.809L56.925 40.92C56.588 41.144 56.154 41.161 55.802 40.962C55.047 40.537 54.241 40.203 53.406 39.969C53.017 39.86 52.722 39.542 52.642 39.146L51.896 35.414C51.856 35.217 51.682 35.074 51.481 35.074H49.445C49.244 35.074 49.07 35.217 49.03 35.414L48.284 39.146C48.205 39.542 47.91 39.86 47.521 39.969C46.685 40.203 45.879 40.537 45.124 40.962C44.772 41.16 44.338 41.144 44.002 40.92L40.835 38.808C40.668 38.697 40.443 38.719 40.301 38.861L38.861 40.301C38.719 40.443 38.697 40.667 38.809 40.835L40.92 44.002C41.144 44.338 41.16 44.772 40.962 45.124C40.537 45.879 40.203 46.685 39.969 47.52C39.809 48.092 39.217 48.425 38.646 48.265C38.075 48.105 37.741 47.513 37.901 46.942C38.121 46.155 38.415 45.391 38.778 44.661L37.022 42.026C36.344 41.01 36.479 39.646 37.343 38.782L38.782 37.343C39.646 36.48 41.01 36.345 42.026 37.022L44.661 38.778C45.192 38.514 45.741 38.287 46.304 38.098L46.925 34.993C47.164 33.795 48.224 32.926 49.445 32.926H51.481C52.702 32.926 53.762 33.795 54.002 34.993L54.622 38.098C55.185 38.286 55.735 38.514 56.266 38.778L58.9 37.022C59.916 36.345 61.28 36.48 62.144 37.343L63.584 38.782C64.447 39.646 64.582 41.01 63.905 42.026L62.148 44.661C62.412 45.192 62.64 45.741 62.829 46.304L65.934 46.925C67.131 47.164 68 48.224 68 49.445V51.481C68 52.702 67.131 53.762 65.934 54.002ZM26.126 14.057C32.781 14.057 38.195 19.472 38.195 26.127C38.195 28.036 37.738 29.938 36.871 31.627C36.681 31.998 36.305 32.211 35.915 32.211C35.75 32.211 35.583 32.173 35.426 32.092C34.899 31.822 34.69 31.175 34.961 30.647C35.682 29.24 36.048 27.719 36.048 26.127C36.048 20.656 31.597 16.205 26.126 16.205C23.523 16.205 21.064 17.205 19.201 19.022C18.776 19.436 18.096 19.427 17.682 19.002C17.269 18.578 17.277 17.898 17.702 17.484C19.968 15.274 22.96 14.057 26.126 14.057ZM26.126 32.668C22.519 32.668 19.585 29.733 19.585 26.126C19.585 22.519 22.519 19.585 26.126 19.585C29.733 19.585 32.668 22.519 32.668 26.126C32.668 29.733 29.733 32.668 26.126 32.668ZM26.126 21.732C23.704 21.732 21.732 23.704 21.732 26.126C21.732 28.549 23.703 30.521 26.126 30.521C28.549 30.521 30.52 28.549 30.52 26.126C30.52 23.704 28.549 21.732 26.126 21.732ZM26.127 36.048C28.231 36.048 30.241 35.398 31.939 34.168C32.419 33.82 33.091 33.928 33.438 34.408C33.786 34.888 33.679 35.56 33.198 35.908C31.131 37.404 28.686 38.195 26.127 38.195C19.472 38.195 14.057 32.781 14.057 26.126C14.057 24.781 14.278 23.46 14.712 22.198C14.904 21.637 15.515 21.339 16.076 21.532C16.637 21.725 16.935 22.336 16.742 22.896C16.385 23.932 16.205 25.019 16.205 26.126C16.205 31.597 20.656 36.048 26.127 36.048ZM49.559 30.962L44.514 31.971C44.242 32.824 43.911 33.66 43.525 34.465C43.269 34.999 42.627 35.225 42.093 34.968C41.558 34.712 41.333 34.07 41.589 33.536C42.017 32.644 42.369 31.709 42.636 30.755C42.745 30.366 43.063 30.071 43.459 29.992L49.138 28.856C49.699 28.744 50.106 28.247 50.106 27.676V24.577C50.106 24.005 49.699 23.509 49.138 23.397L43.459 22.261C43.063 22.182 42.745 21.887 42.636 21.498C42.268 20.183 41.742 18.914 41.074 17.727C40.875 17.374 40.891 16.941 41.116 16.604L44.328 11.785C44.645 11.309 44.582 10.67 44.178 10.266L41.987 8.075C41.582 7.671 40.944 7.607 40.468 7.925L35.649 11.137C35.312 11.361 34.878 11.378 34.526 11.179C33.339 10.51 32.07 9.985 30.755 9.617C30.366 9.508 30.071 9.19 29.992 8.794L28.856 3.115C28.744 2.554 28.248 2.147 27.676 2.147H24.577C24.006 2.147 23.509 2.554 23.397 3.115L22.261 8.794C22.182 9.19 21.887 9.508 21.498 9.617C20.183 9.985 18.914 10.51 17.727 11.179C17.375 11.378 16.941 11.362 16.605 11.137L11.785 7.925C11.31 7.608 10.671 7.671 10.266 8.075L8.075 10.266C7.671 10.67 7.608 11.309 7.925 11.785L11.137 16.604C11.361 16.94 11.378 17.374 11.179 17.726C10.51 18.914 9.985 20.182 9.617 21.497C9.508 21.886 9.19 22.181 8.794 22.26L3.115 23.396C2.554 23.508 2.147 24.005 2.147 24.577V27.675C2.147 28.247 2.554 28.743 3.115 28.855L8.794 29.991C9.19 30.07 9.508 30.365 9.617 30.755C9.985 32.069 10.51 33.338 11.179 34.525C11.378 34.878 11.362 35.311 11.137 35.648L7.924 40.467C7.607 40.943 7.671 41.582 8.075 41.986L10.266 44.177C10.67 44.581 11.309 44.645 11.785 44.328L16.604 41.115C16.941 40.891 17.374 40.874 17.727 41.073C18.914 41.742 20.183 42.267 21.497 42.635C21.887 42.744 22.182 43.062 22.261 43.459L23.397 49.137C23.509 49.698 24.005 50.105 24.577 50.105H27.675C28.247 50.105 28.744 49.698 28.856 49.137L29.992 43.459C30.071 43.062 30.366 42.744 30.755 42.635C31.686 42.375 32.599 42.033 33.471 41.619C34.007 41.365 34.647 41.594 34.901 42.129C35.156 42.665 34.927 43.305 34.392 43.56C33.61 43.931 32.798 44.251 31.971 44.513L30.962 49.559C30.649 51.12 29.268 52.253 27.676 52.253H24.577C22.985 52.253 21.603 51.12 21.291 49.559L20.282 44.513C19.24 44.183 18.227 43.763 17.258 43.261L12.976 46.115C11.652 46.998 9.873 46.822 8.748 45.696L6.557 43.505C5.431 42.38 5.255 40.601 6.138 39.277L8.992 34.995C8.49 34.025 8.07 33.013 7.74 31.971L2.694 30.962C1.133 30.649 0 29.267 0 27.676V24.577C0 22.985 1.133 21.603 2.694 21.291L7.74 20.282C8.07 19.24 8.49 18.228 8.992 17.258L6.138 12.976C5.255 11.652 5.431 9.874 6.557 8.748L8.748 6.557C9.873 5.431 11.652 5.255 12.976 6.138L17.258 8.992C18.227 8.49 19.24 8.07 20.282 7.74L21.291 2.694C21.603 1.133 22.985 0 24.577 0H27.675C29.267 0 30.649 1.133 30.961 2.694L31.97 7.739C33.012 8.07 34.025 8.49 34.995 8.992L39.276 6.138C40.601 5.255 42.379 5.431 43.505 6.556L45.696 8.747C46.821 9.873 46.997 11.651 46.114 12.976L43.26 17.258C43.763 18.227 44.182 19.24 44.513 20.282L49.559 21.291C51.12 21.603 52.253 22.985 52.253 24.577V27.675C52.253 29.267 51.12 30.649 49.559 30.962Z" fill="#F5F5F5"/>
<path id="Vector_2" d="M50.463 54.328C51.326 54.328 52.142 54.05 52.824 53.524C53.293 53.161 53.967 53.248 54.33 53.717C54.692 54.187 54.606 54.861 54.136 55.224C53.076 56.043 51.806 56.476 50.463 56.476C47.148 56.476 44.45 53.779 44.45 50.463C44.45 47.148 47.148 44.45 50.463 44.45C53.778 44.45 56.476 47.148 56.476 50.463C56.476 51.056 55.995 51.537 55.402 51.537C54.809 51.537 54.328 51.056 54.328 50.463C54.328 48.332 52.595 46.598 50.463 46.598C48.332 46.598 46.598 48.332 46.598 50.463C46.598 52.595 48.332 54.328 50.463 54.328ZM65.934 54.002L62.829 54.622C62.64 55.185 62.412 55.735 62.148 56.266L63.905 58.901C64.582 59.916 64.447 61.28 63.584 62.144L62.144 63.583C61.281 64.447 59.917 64.582 58.901 63.905L56.266 62.148C55.735 62.412 55.185 62.64 54.623 62.829L54.002 65.934C53.762 67.131 52.702 68 51.481 68H49.445C48.224 68 47.164 67.131 46.925 65.934L46.304 62.829C45.741 62.64 45.191 62.412 44.66 62.148L42.026 63.905C41.01 64.582 39.646 64.447 38.782 63.583L37.343 62.144C36.479 61.281 36.344 59.917 37.021 58.901L38.778 56.266C38.514 55.735 38.286 55.185 38.097 54.623L34.993 54.002C33.795 53.762 32.926 52.702 32.926 51.481V49.445C32.926 48.224 33.795 47.164 34.992 46.925L35.221 46.879C35.803 46.763 36.368 47.14 36.484 47.721C36.601 48.303 36.224 48.868 35.642 48.985L35.414 49.03C35.217 49.07 35.074 49.244 35.074 49.445V51.481C35.074 51.682 35.217 51.857 35.414 51.896L39.145 52.642C39.542 52.721 39.86 53.016 39.969 53.406C40.202 54.241 40.537 55.047 40.962 55.802C41.16 56.154 41.144 56.588 40.919 56.925L38.808 60.091C38.697 60.259 38.719 60.483 38.861 60.625L40.301 62.065C40.443 62.207 40.667 62.229 40.835 62.118L44.001 60.006C44.338 59.782 44.772 59.766 45.124 59.964C45.878 60.389 46.685 60.723 47.52 60.957C47.909 61.066 48.204 61.384 48.284 61.781L49.03 65.512C49.069 65.709 49.244 65.852 49.445 65.852H51.481C51.682 65.852 51.856 65.709 51.896 65.512L52.642 61.781C52.721 61.385 53.016 61.066 53.405 60.958C54.241 60.724 55.047 60.39 55.802 59.965C56.154 59.766 56.588 59.782 56.924 60.007L60.091 62.118C60.258 62.229 60.483 62.207 60.625 62.065L62.065 60.626C62.207 60.483 62.229 60.259 62.118 60.092L60.006 56.925C59.782 56.589 59.766 56.155 59.964 55.802C60.389 55.048 60.723 54.242 60.957 53.406C61.066 53.017 61.384 52.722 61.78 52.643L65.512 51.896C65.709 51.857 65.852 51.682 65.852 51.482V49.445C65.852 49.244 65.709 49.07 65.512 49.03L61.781 48.284C61.384 48.205 61.066 47.91 60.957 47.521C60.723 46.685 60.389 45.879 59.964 45.125C59.766 44.772 59.782 44.338 60.006 44.002L62.118 40.835C62.229 40.668 62.207 40.443 62.065 40.301L60.625 38.862C60.483 38.719 60.259 38.697 60.091 38.809L56.925 40.92C56.588 41.144 56.154 41.161 55.802 40.962C55.047 40.537 54.241 40.203 53.406 39.969C53.017 39.86 52.722 39.542 52.642 39.146L51.896 35.414C51.856 35.217 51.682 35.074 51.481 35.074H49.445C49.244 35.074 49.07 35.217 49.03 35.414L48.284 39.146C48.205 39.542 47.91 39.86 47.521 39.969C46.685 40.203 45.879 40.537 45.124 40.962C44.772 41.16 44.338 41.144 44.002 40.92L40.835 38.808C40.668 38.697 40.443 38.719 40.301 38.861L38.861 40.301C38.719 40.443 38.697 40.667 38.809 40.835L40.92 44.002C41.144 44.338 41.16 44.772 40.962 45.124C40.537 45.879 40.203 46.685 39.969 47.52C39.809 48.092 39.217 48.425 38.646 48.265C38.075 48.105 37.741 47.513 37.901 46.942C38.121 46.155 38.415 45.391 38.778 44.661L37.022 42.026C36.344 41.01 36.479 39.646 37.343 38.782L38.782 37.343C39.646 36.48 41.01 36.345 42.026 37.022L44.661 38.778C45.192 38.514 45.741 38.287 46.304 38.098L46.925 34.993C47.164 33.795 48.224 32.926 49.445 32.926H51.481C52.702 32.926 53.762 33.795 54.002 34.993L54.622 38.098C55.185 38.286 55.735 38.514 56.266 38.778L58.9 37.022C59.916 36.345 61.28 36.48 62.144 37.343L63.584 38.782C64.447 39.646 64.582 41.01 63.905 42.026L62.148 44.661C62.412 45.192 62.64 45.741 62.829 46.304L65.934 46.925C67.131 47.164 68 48.224 68 49.445V51.481C68 52.702 67.131 53.762 65.934 54.002ZM26.126 14.057C32.781 14.057 38.195 19.472 38.195 26.127C38.195 28.036 37.738 29.938 36.871 31.627C36.681 31.998 36.305 32.211 35.915 32.211C35.75 32.211 35.583 32.173 35.426 32.092C34.899 31.822 34.69 31.175 34.961 30.647C35.682 29.24 36.048 27.719 36.048 26.127C36.048 20.656 31.597 16.205 26.126 16.205C23.523 16.205 21.064 17.205 19.201 19.022C18.776 19.436 18.096 19.427 17.682 19.002C17.269 18.578 17.277 17.898 17.702 17.484C19.968 15.274 22.96 14.057 26.126 14.057ZM26.126 32.668C22.519 32.668 19.585 29.733 19.585 26.126C19.585 22.519 22.519 19.585 26.126 19.585C29.733 19.585 32.668 22.519 32.668 26.126C32.668 29.733 29.733 32.668 26.126 32.668ZM26.126 21.732C23.704 21.732 21.732 23.704 21.732 26.126C21.732 28.549 23.703 30.521 26.126 30.521C28.549 30.521 30.52 28.549 30.52 26.126C30.52 23.704 28.549 21.732 26.126 21.732ZM26.127 36.048C28.231 36.048 30.241 35.398 31.939 34.168C32.419 33.82 33.091 33.928 33.438 34.408C33.786 34.888 33.679 35.56 33.198 35.908C31.131 37.404 28.686 38.195 26.127 38.195C19.472 38.195 14.057 32.781 14.057 26.126C14.057 24.781 14.278 23.46 14.712 22.198C14.904 21.637 15.515 21.339 16.076 21.532C16.637 21.725 16.935 22.336 16.742 22.896C16.385 23.932 16.205 25.019 16.205 26.126C16.205 31.597 20.656 36.048 26.127 36.048ZM49.559 30.962L44.514 31.971C44.242 32.824 43.911 33.66 43.525 34.465C43.269 34.999 42.627 35.225 42.093 34.968C41.558 34.712 41.333 34.07 41.589 33.536C42.017 32.644 42.369 31.709 42.636 30.755C42.745 30.366 43.063 30.071 43.459 29.992L49.138 28.856C49.699 28.744 50.106 28.247 50.106 27.676V24.577C50.106 24.005 49.699 23.509 49.138 23.397L43.459 22.261C43.063 22.182 42.745 21.887 42.636 21.498C42.268 20.183 41.742 18.914 41.074 17.727C40.875 17.374 40.891 16.941 41.116 16.604L44.328 11.785C44.645 11.309 44.582 10.67 44.178 10.266L41.987 8.075C41.582 7.671 40.944 7.607 40.468 7.925L35.649 11.137C35.312 11.361 34.878 11.378 34.526 11.179C33.339 10.51 32.07 9.985 30.755 9.617C30.366 9.508 30.071 9.19 29.992 8.794L28.856 3.115C28.744 2.554 28.248 2.147 27.676 2.147H24.577C24.006 2.147 23.509 2.554 23.397 3.115L22.261 8.794C22.182 9.19 21.887 9.508 21.498 9.617C20.183 9.985 18.914 10.51 17.727 11.179C17.375 11.378 16.941 11.362 16.605 11.137L11.785 7.925C11.31 7.608 10.671 7.671 10.266 8.075L8.075 10.266C7.671 10.67 7.608 11.309 7.925 11.785L11.137 16.604C11.361 16.94 11.378 17.374 11.179 17.726C10.51 18.914 9.985 20.182 9.617 21.497C9.508 21.886 9.19 22.181 8.794 22.26L3.115 23.396C2.554 23.508 2.147 24.005 2.147 24.577V27.675C2.147 28.247 2.554 28.743 3.115 28.855L8.794 29.991C9.19 30.07 9.508 30.365 9.617 30.755C9.985 32.069 10.51 33.338 11.179 34.525C11.378 34.878 11.362 35.311 11.137 35.648L7.924 40.467C7.607 40.943 7.671 41.582 8.075 41.986L10.266 44.177C10.67 44.581 11.309 44.645 11.785 44.328L16.604 41.115C16.941 40.891 17.374 40.874 17.727 41.073C18.914 41.742 20.183 42.267 21.497 42.635C21.887 42.744 22.182 43.062 22.261 43.459L23.397 49.137C23.509 49.698 24.005 50.105 24.577 50.105H27.675C28.247 50.105 28.744 49.698 28.856 49.137L29.992 43.459C30.071 43.062 30.366 42.744 30.755 42.635C31.686 42.375 32.599 42.033 33.471 41.619C34.007 41.365 34.647 41.594 34.901 42.129C35.156 42.665 34.927 43.305 34.392 43.56C33.61 43.931 32.798 44.251 31.971 44.513L30.962 49.559C30.649 51.12 29.268 52.253 27.676 52.253H24.577C22.985 52.253 21.603 51.12 21.291 49.559L20.282 44.513C19.24 44.183 18.227 43.763 17.258 43.261L12.976 46.115C11.652 46.998 9.873 46.822 8.748 45.696L6.557 43.505C5.431 42.38 5.255 40.601 6.138 39.277L8.992 34.995C8.49 34.025 8.07 33.013 7.74 31.971L2.694 30.962C1.133 30.649 0 29.267 0 27.676V24.577C0 22.985 1.133 21.603 2.694 21.291L7.74 20.282C8.07 19.24 8.49 18.228 8.992 17.258L6.138 12.976C5.255 11.652 5.431 9.874 6.557 8.748L8.748 6.557C9.873 5.431 11.652 5.255 12.976 6.138L17.258 8.992C18.227 8.49 19.24 8.07 20.282 7.74L21.291 2.694C21.603 1.133 22.985 0 24.577 0H27.675C29.267 0 30.649 1.133 30.961 2.694L31.97 7.739C33.012 8.07 34.025 8.49 34.995 8.992L39.276 6.138C40.601 5.255 42.379 5.431 43.505 6.556L45.696 8.747C46.821 9.873 46.997 11.651 46.114 12.976L43.26 17.258C43.763 18.227 44.182 19.24 44.513 20.282L49.559 21.291C51.12 21.603 52.253 22.985 52.253 24.577V27.675C52.253 29.267 51.12 30.649 49.559 30.962Z" fill="url(#paint0_linear_13_644)"/>
</g>
<defs>
<linearGradient id="paint0_linear_13_644" x1="6.49303e-05" y1="6774.09" x2="592.688" y2="0.000147984" gradientUnits="userSpaceOnUse">
<stop stop-color="#00C2FF"/>
<stop offset="1" stop-color="#0282DB"/>
</linearGradient>
<clipPath id="clip0_13_644">
<rect width="68" height="68" fill="white"/>
</clipPath>
</defs>
</svg>
