<?xml version="1.0" encoding="utf-8"?><svg viewBox="0 0 68 68" xmlns="http://www.w3.org/2000/svg" xmlns:xlink="http://www.w3.org/1999/xlink"><style>:root>svg{display:none}:root>svg:target{display:block}</style><svg fill="none" viewBox="0 0 41 16" id="arrow" xmlns="http://www.w3.org/2000/svg"><path d="M40.707 8.707a1 1 0 0 0 0-1.414L34.343.929a1 1 0 1 0-1.414 1.414L38.586 8l-5.657 5.657a1 1 0 0 0 1.414 1.414l6.364-6.364ZM0 9h40V7H0v2Z" fill="#CDDAE0"/></svg><svg fill="none" viewBox="0 0 46 46" id="box-1" xmlns="http://www.w3.org/2000/svg"><g clip-path="url(#ba)"><path fill-rule="evenodd" clip-rule="evenodd" d="M16.518 4.391c0-.418.279-.697.697-.697h5.367c.418 0 .697.279.697.697v5.506c0 .418-.279.697-.697.697h-5.367a.699.699 0 0 1-.697-.697V4.391ZM17.912 9.2h3.973V5.088h-3.973V9.2Zm-1.394 4.321c0-.418.279-.697.697-.697h5.367c.418 0 .697.279.697.697v5.506c0 .419-.279.697-.697.697h-5.367c-.418 0-.697-.278-.697-.697v-5.506Zm1.394 4.879h3.973v-4.112h-3.973V18.4Zm-.697 12.406h5.367c.418 0 .697.279.697.697v5.506c0 .418-.279.697-.697.697h-5.367c-.418 0-.697-.279-.697-.697v-5.506c0-.418.279-.697.697-.697Zm.697 5.506h3.973V32.2h-3.973v4.112Zm-1.394-13.8c0-.418.279-.697.697-.697h5.367c.418 0 .697.279.697.697v5.506c0 .418-.279.697-.697.697h-5.367c-.418 0-.697-.279-.697-.697v-5.506Zm1.394 4.809h3.973v-4.112h-3.973v4.112Zm-5.297-14.497c.418 0 .697.279.697.697v5.506c0 .419-.279.697-.697.697H7.249c-.419 0-.698-.278-.697-.697v-5.506c0-.418.278-.697.697-.697h5.366ZM7.945 18.4h3.973v-4.112H7.945V18.4ZM6.552 4.391c0-.418.278-.697.697-.697h5.366c.418 0 .697.279.697.697v5.506c0 .418-.279.697-.697.697H7.249a.698.698 0 0 1-.697-.697V4.391ZM7.945 9.2h3.973V5.088H7.945V9.2ZM45.303 46H.697C.279 46 0 45.721 0 45.303c0-.418.279-.697.697-.697l4.67-.07v-6.969C2.37 37.288 0 34.709 0 31.573c0-3.067 4.949-10.037 5.506-10.733a.725.725 0 0 1 1.115 0c.558.766 5.506 7.666 5.506 10.802 0 3.067-2.369 5.646-5.366 5.994v2.719h19.584V1.394H3.555v18.748c0 .419-.279.698-.697.698-.418 0-.697-.279-.697-.698V.697c0-.418.278-.697.697-.697h24.185c.418 0 .696.279.696.697V18.4h17.564c.418 0 .697.279.697.697v26.206c0 .418-.279.697-.697.697Zm-34.57-14.427c0-1.952-2.997-6.761-4.669-9.2-1.673 2.439-4.67 7.179-4.67 9.2a4.728 4.728 0 0 0 3.973 4.669V32.13c0-.418.278-.696.697-.696.418 0 .697.278.697.696v4.043c2.23-.349 3.972-2.231 3.972-4.6Zm15.612 10.176H6.761v2.857h19.584v-2.857Zm7.388 2.787v.07h4.879V33.942h-4.879v10.594Zm10.873-24.742H27.739v24.812h4.6v-11.36c0-.419.279-.697.697-.697h6.273c.418 0 .697.278.697.697v11.36h4.6V19.794Zm-7.667 7.736V23c0-.418.279-.697.697-.697h4.531c.418 0 .697.279.697.697v4.53c0 .419-.279.697-.697.697h-4.531c-.418 0-.697-.278-.697-.697Zm1.394-.697h3.137v-3.136h-3.137v3.136Zm-3.485 1.394h-4.53a.698.698 0 0 1-.697-.697V23c0-.418.279-.697.697-.697h4.53c.419 0 .697.279.697.697v4.53c0 .419-.278.697-.697.697Zm-.696-4.53h-3.137v3.136h3.137v-3.136Z" fill="#00A8FF"/></g><defs><clipPath id="ba"><path fill="#fff" d="M0 0h46v46H0z"/></clipPath></defs></svg><svg fill="none" viewBox="0 0 36 46" id="box-2" xmlns="http://www.w3.org/2000/svg"><g clip-path="url(#ca)"><path fill-rule="evenodd" clip-rule="evenodd" d="M35.061 46a.928.928 0 0 1-.938-.918v-7.064c0-1.261-.814-2.396-2.025-2.827l-6.089-2.165-2.535 3.718a1.942 1.942 0 0 1-1.618.846 1.952 1.952 0 0 1-1.371-.557l-1.546-1.512v9.561A.93.93 0 0 1 18 46a.93.93 0 0 1-.939-.918v-9.561l-1.546 1.512a1.958 1.958 0 0 1-1.565.547 1.943 1.943 0 0 1-1.425-.836l-2.534-3.718-6.089 2.165c-1.211.43-2.025 1.566-2.025 2.827v7.064c0 .507-.42.918-.938.918A.928.928 0 0 1 0 45.082v-7.064c0-2.03 1.31-3.859 3.26-4.552l5.775-2.054a.907.907 0 0 1 .256-.702l1.749-1.797v-3.086a11.115 11.115 0 0 1-4.015-8.561v-2.072a10.411 10.411 0 0 1-1.003-4.461V8.77c0-4.835 4.022-8.77 8.967-8.77h14.05a.93.93 0 0 1 .939.918v9.815c0 1.544-.338 3.044-1.004 4.461v2.409c0 2.955-1.265 5.809-3.47 7.831-.177.162-.359.315-.544.464v3.015l1.748 1.797a.9.9 0 0 1 .256.702l5.775 2.054c1.95.693 3.26 2.522 3.261 4.552v7.064c0 .507-.42.918-.939.918ZM21.812 35.735a.063.063 0 0 0 .053.019c.03-.003.042-.021.047-.028l2.919-4.282-.939-.965-4.428 2.96 2.348 2.296ZM18 32.193l5.083-3.397v-1.677a11.08 11.08 0 0 1-5.074 1.216 10.735 10.735 0 0 1-5.092-1.253v1.714L18 32.193Zm-3.913 3.533c.005.007.017.025.048.028.031.002.046-.012.052-.019l2.349-2.297-4.428-2.96-.94.966 2.919 4.282Zm13.01-18.123v-2.614c0-.138.032-.275.093-.399a8.644 8.644 0 0 0 .911-3.857V1.836H14.989c-3.91 0-7.09 3.111-7.09 6.934v1.963c0 1.336.306 2.634.91 3.857a.906.906 0 0 1 .093.399v2.277c0 4.865 3.73 8.912 8.49 9.214 2.55.161 4.974-.686 6.828-2.385 1.855-1.701 2.877-4.007 2.877-6.492Zm-15.135-7.084a.062.062 0 0 0-.049.062v2.115c0 .507-.42.918-.938.918a.928.928 0 0 1-.939-.918v-2.115c0-.947.692-1.736 1.646-1.877 3.029-.446 10.457-1.11 14.007 2.361a.904.904 0 0 1 0 1.298.953.953 0 0 1-1.328 0c-1.254-1.226-3.374-1.945-6.301-2.135-2.487-.162-4.888.113-6.098.291ZM6.96 40.239c.519 0 .939.411.939.918v3.925c0 .507-.42.918-.939.918a.928.928 0 0 1-.938-.918v-3.925c0-.507.42-.918.938-.918Zm22.079 0c.519 0 .939.411.939.918v3.925c0 .507-.42.918-.939.918a.928.928 0 0 1-.938-.918v-3.925c0-.507.42-.918.938-.918Z" fill="#00A8FF"/></g><defs><clipPath id="ca"><path fill="#fff" d="M0 0h36v46H0z"/></clipPath></defs></svg><svg fill="none" viewBox="0 0 53 46" id="box-3" xmlns="http://www.w3.org/2000/svg"><g clip-path="url(#da)"><path fill-rule="evenodd" clip-rule="evenodd" d="m50.023 44.284-9.073 1.673c-1.316.243-2.635-.625-2.886-1.899L30.316 4.707v38.424c0 1.296-1.129 2.388-2.468 2.388h-9.236c-1.339 0-2.467-1.092-2.467-2.388V2.87c0-1.297 1.128-2.389 2.467-2.389h9.236c1.41 0 2.468 1.092 2.468 2.389v.631a2.46 2.46 0 0 1 1.922-1.784L41.311.043c1.316-.243 2.635.625 2.886 1.899l7.787 39.548c.251 1.274-.646 2.551-1.961 2.794ZM28.905 2.87c0-.546-.423-1.024-1.057-1.024h-9.236c-.564 0-1.057.478-1.057 1.024v27.772h11.35V2.87Zm0 29.137h-11.35v11.124c0 .545.493 1.023 1.057 1.023h9.236c.634 0 1.057-.478 1.057-1.023V32.007ZM42.812 2.198c-.106-.537-.683-.917-1.237-.814l-9.073 1.673c-.623.115-.946.661-.84 1.197l5.372 27.282 11.15-2.057-5.372-27.281Zm5.636 28.622-11.15 2.057 2.151 10.926c.106.536.683.916 1.237.814l9.073-1.674c.554-.102.946-.661.84-1.197L48.448 30.82Zm-3.881 9.816c-2.008.37-3.904-.878-4.287-2.821-.383-1.944.906-3.78 2.915-4.151 2.008-.37 3.904.878 4.287 2.822s-.906 3.779-2.915 4.15Zm1.53-3.895c-.224-1.139-1.461-1.953-2.638-1.736-1.178.217-2.018 1.415-1.794 2.554.224 1.14 1.392 1.966 2.638 1.736 1.247-.23 2.019-1.414 1.794-2.554Zm-22.832 4.206c-2.044 0-3.666-1.57-3.666-3.549 0-1.979 1.622-3.548 3.666-3.548 2.045 0 3.667 1.569 3.667 3.548s-1.622 3.549-3.667 3.549Zm0-5.732c-1.198 0-2.256 1.023-2.256 2.183s.987 2.184 2.256 2.184c1.269 0 2.256-1.024 2.256-2.184 0-1.16-1.057-2.183-2.256-2.183ZM11.703 45.519H2.467C1.128 45.519 0 44.427 0 43.131V2.87C0 1.573 1.128.481 2.467.481h9.236c1.41 0 2.468 1.092 2.468 2.389v40.261c0 1.296-1.128 2.388-2.468 2.388ZM12.761 2.87c0-.546-.494-1.024-1.058-1.024H2.467c-.563 0-1.057.478-1.057 1.024v27.772h11.351V2.87Zm0 29.137H1.41v11.124c0 .545.494 1.023 1.057 1.023h9.236c.635 0 1.058-.478 1.058-1.023V32.007Zm-5.57 8.94c-2.044 0-3.666-1.57-3.666-3.549 0-1.979 1.622-3.548 3.666-3.548 2.045 0 3.666 1.569 3.666 3.548s-1.621 3.549-3.666 3.549Zm0-5.732c-1.198 0-2.256 1.023-2.256 2.183s.987 2.184 2.256 2.184c1.269 0 2.256-1.024 2.256-2.184 0-1.16-1.057-2.183-2.256-2.183Z" fill="#00A8FF"/></g><defs><clipPath id="da"><path fill="#fff" d="M0 0h53v46H0z"/></clipPath></defs></svg><svg fill="none" viewBox="0 0 22 28" id="location" xmlns="http://www.w3.org/2000/svg"><g clip-path="url(#ea)"><path fill-rule="evenodd" clip-rule="evenodd" d="M21.804 13.331a11.09 11.09 0 0 1-.81 2.588c-1.185 2.848-3.795 7.221-9.505 11.905A.775.775 0 0 1 11 28a.775.775 0 0 1-.489-.176c-5.715-4.684-8.32-9.057-9.505-11.905a11.219 11.219 0 0 1-.81-2.588A11.213 11.213 0 0 1 0 11.223C0 5.036 4.934 0 10.994 0 17.055 0 21.988 5.036 22 11.223c0 .705-.069 1.415-.196 2.108ZM10.994 1.579c-5.204 0-9.441 4.326-9.441 9.639 0 .616.057 1.227.172 1.831 0 .018.006.029.006.041.006.03.017.118.052.253v.011c.149.658.362 1.303.638 1.914.006.006.006.017.011.023 1.076 2.601 3.433 6.569 8.562 10.895 5.129-4.326 7.487-8.294 8.562-10.895.006-.006.006-.017.012-.023a9.498 9.498 0 0 0 .638-1.914v-.011c.029-.135.046-.223.052-.253 0-.012.005-.023.005-.035a9.668 9.668 0 0 0 .173-1.837c0-5.313-4.238-9.639-9.442-9.639Zm0 16.894c-3.847 0-6.98-3.199-6.98-7.126 0-3.927 3.133-7.126 6.98-7.126 3.847 0 6.981 3.199 6.981 7.126 0 3.927-3.134 7.126-6.981 7.126Zm0-12.668c-2.99 0-5.428 2.489-5.428 5.542 0 3.052 2.433 5.541 5.428 5.541 2.996 0 5.428-2.489 5.428-5.541 0-3.053-2.438-5.542-5.428-5.542Z" fill="#A6A6A6"/></g><defs><clipPath id="ea"><path fill="#fff" d="M0 0h22v28H0z"/></clipPath></defs></svg><svg fill="none" viewBox="0 0 30 24" id="update" xmlns="http://www.w3.org/2000/svg"><g clip-path="url(#fa)"><path fill-rule="evenodd" clip-rule="evenodd" d="m25.657 12.194-1.674 1.143a.655.655 0 0 1-.921-.18.659.659 0 0 1 .179-.916l2.698-1.843a.662.662 0 0 1 .837.029l2.5 2.173a.67.67 0 0 1 .066.935.674.674 0 0 1-.94.066l-1.429-1.247c-.01.416-.047.822-.104 1.238a11.178 11.178 0 0 1-.432 1.956 11.946 11.946 0 0 1-5.848 7.068 11.853 11.853 0 0 1-9.111.841 11.98 11.98 0 0 1-5.011-3.071 12.03 12.03 0 0 1-2.942-5.121.666.666 0 0 1 .451-.822.653.653 0 0 1 .818.463 10.829 10.829 0 0 0 2.623 4.545 10.409 10.409 0 0 0 4.447 2.731c2.802.878 5.697.529 8.104-.737a10.667 10.667 0 0 0 5.208-6.284c.179-.586.301-1.171.386-1.748.057-.407.085-.813.095-1.219Zm.818-3.459a.667.667 0 0 1-.461.823.67.67 0 0 1-.818-.464 10.667 10.667 0 0 0-2.623-4.554 10.633 10.633 0 0 0-4.437-2.731 10.622 10.622 0 0 0-13.314 7.03c-.178.585-.31 1.162-.385 1.748-.056.406-.085.812-.094 1.209l1.673-1.134a.65.65 0 0 1 .912.171.667.667 0 0 1-.169.925l-2.708 1.843a.65.65 0 0 1-.827-.029L.724 11.4a.672.672 0 0 1-.066-.936.655.655 0 0 1 .93-.066l1.43 1.248c.019-.416.046-.822.103-1.238.094-.652.235-1.304.433-1.956a11.96 11.96 0 0 1 5.857-7.068 11.853 11.853 0 0 1 9.111-.841 11.929 11.929 0 0 1 5.001 3.071 12.154 12.154 0 0 1 2.952 5.121Z" fill="#A6A6A6"/></g><defs><clipPath id="fa"><path fill="#fff" transform="translate(.5)" d="M0 0h29v24H0z"/></clipPath></defs></svg><svg fill="none" viewBox="0 0 23 27" id="user" xmlns="http://www.w3.org/2000/svg"><g clip-path="url(#ga)"><path fill-rule="evenodd" clip-rule="evenodd" d="M22.73 23.975a.746.746 0 0 1-.292.352C22.27 24.434 18.244 27 11.508 27S.746 24.439.578 24.327a.717.717 0 0 1-.29-.352c-.298-.749-.292-2.242-.286-2.533v-.016c.005-.045.005-.09.005-.14.034-1.102.107-3.69 2.537-4.524.017-.005.033-.011.056-.016 2.536-.643 4.625-2.097 4.647-2.114a.757.757 0 0 1 1.053.185.753.753 0 0 1-.185 1.051c-.095.061-2.324 1.616-5.112 2.331-1.305.464-1.45 1.857-1.489 3.131 0 .051-.006.096-.006.14-.011.504.028 1.281.118 1.728.912.515 4.49 2.298 9.877 2.298 5.41 0 8.964-1.778 9.872-2.293.09-.447.123-1.224.117-1.727-.005-.045-.005-.09-.005-.14-.04-1.275-.185-2.667-1.49-3.131-2.788-.716-5.017-2.265-5.112-2.331a.756.756 0 1 1 .868-1.236c.022.017 2.122 1.471 4.647 2.113.017.006.04.011.056.017 2.43.828 2.503 3.416 2.537 4.523 0 .051.005.095.005.14v.017c.006.291.012 1.784-.268 2.527Zm-11.149-9.426h-.179c-1.64-.029-2.968-.605-3.942-1.706-2.156-2.427-1.797-6.586-1.758-6.983.14-3.003 1.573-4.429 2.75-5.094C9.621.101 10.841 0 11.463 0h.096c1.13.022 2.143.291 3.011.788 1.165.666 2.576 2.092 2.716 5.072.04.397.397 4.556-1.758 6.983-.98 1.101-2.307 1.677-3.948 1.706Zm4.205-8.55c-.005-.011-.005-.028-.005-.045-.174-3.79-2.744-4.405-4.256-4.439h-.067c-1.22 0-4.07.431-4.256 4.439 0 .012-.005.028-.005.045-.006.034-.387 3.853 1.39 5.843.7.794 1.645 1.186 2.877 1.197h.056c1.237-.011 2.178-.403 2.883-1.197 1.781-2.002 1.39-5.804 1.383-5.843Z" fill="#A6A6A6"/></g><defs><clipPath id="ga"><path fill="#fff" d="M0 0h23v27H0z"/></clipPath></defs></svg><svg fill="none" viewBox="0 0 68 68" id="work" xmlns="http://www.w3.org/2000/svg"><g clip-path="url(#ha)"><path opacity=".902" fill-rule="evenodd" clip-rule="evenodd" d="M50.463 54.328c.863 0 1.679-.278 2.361-.804a1.073 1.073 0 1 1 1.312 1.7 5.955 5.955 0 0 1-3.673 1.252 6.02 6.02 0 0 1-6.013-6.013 6.02 6.02 0 0 1 6.013-6.013 6.02 6.02 0 0 1 6.013 6.013 1.074 1.074 0 0 1-2.148 0 3.869 3.869 0 0 0-3.865-3.865 3.87 3.87 0 0 0-3.865 3.865 3.869 3.869 0 0 0 3.865 3.865Zm15.471-.326-3.105.62a12.96 12.96 0 0 1-.681 1.644l1.757 2.635a2.578 2.578 0 0 1-.321 3.243l-1.44 1.439a2.576 2.576 0 0 1-3.243.322l-2.635-1.757c-.531.264-1.081.492-1.643.681l-.621 3.105A2.578 2.578 0 0 1 51.481 68h-2.036a2.576 2.576 0 0 1-2.52-2.066l-.621-3.105a12.96 12.96 0 0 1-1.644-.681l-2.634 1.757a2.578 2.578 0 0 1-3.244-.322l-1.439-1.439a2.576 2.576 0 0 1-.322-3.243l1.757-2.635a13.008 13.008 0 0 1-.681-1.643l-3.104-.621a2.578 2.578 0 0 1-2.067-2.521v-2.036c0-1.221.869-2.281 2.066-2.52l.229-.046a1.073 1.073 0 1 1 .421 2.106l-.228.045a.425.425 0 0 0-.34.415v2.036c0 .201.143.376.34.415l3.731.746c.397.079.715.374.824.764.233.835.568 1.641.993 2.396.198.352.182.786-.043 1.123l-2.111 3.166a.425.425 0 0 0 .053.534l1.44 1.44a.425.425 0 0 0 .534.053l3.166-2.112c.337-.224.771-.24 1.123-.042.754.425 1.561.759 2.396.993.389.109.684.427.764.824l.746 3.731c.039.197.214.34.415.34h2.036a.425.425 0 0 0 .415-.34l.746-3.731c.079-.396.374-.715.763-.823a10.855 10.855 0 0 0 2.397-.993 1.07 1.07 0 0 1 1.122.042l3.167 2.111a.425.425 0 0 0 .534-.053l1.44-1.439a.425.425 0 0 0 .053-.534l-2.112-3.167a1.076 1.076 0 0 1-.042-1.123c.425-.754.759-1.56.993-2.396.109-.389.427-.684.823-.763l3.732-.747a.424.424 0 0 0 .34-.414v-2.037a.425.425 0 0 0-.34-.415l-3.731-.746a1.073 1.073 0 0 1-.824-.763 10.827 10.827 0 0 0-.993-2.396 1.076 1.076 0 0 1 .042-1.123l2.112-3.167a.425.425 0 0 0-.053-.534l-1.44-1.439a.423.423 0 0 0-.534-.053l-3.166 2.111a1.074 1.074 0 0 1-1.123.042 10.867 10.867 0 0 0-2.396-.993 1.076 1.076 0 0 1-.764-.823l-.746-3.732a.425.425 0 0 0-.415-.34h-2.036a.425.425 0 0 0-.415.34l-.746 3.732a1.073 1.073 0 0 1-.763.823c-.836.234-1.642.568-2.397.993a1.074 1.074 0 0 1-1.122-.042l-3.167-2.112a.425.425 0 0 0-.534.053l-1.44 1.44a.424.424 0 0 0-.052.534l2.111 3.167c.224.336.24.77.042 1.122a10.867 10.867 0 0 0-.993 2.396 1.073 1.073 0 1 1-2.068-.578c.22-.787.514-1.551.877-2.281l-1.756-2.635a2.577 2.577 0 0 1 .321-3.244l1.439-1.439a2.58 2.58 0 0 1 3.244-.321l2.635 1.756c.531-.264 1.08-.491 1.643-.68l.621-3.105a2.576 2.576 0 0 1 2.52-2.067h2.036c1.221 0 2.281.869 2.521 2.067l.62 3.105a12.81 12.81 0 0 1 1.644.68l2.634-1.756a2.58 2.58 0 0 1 3.244.321l1.44 1.439a2.58 2.58 0 0 1 .321 3.244l-1.757 2.635c.264.531.492 1.08.681 1.643l3.105.621A2.576 2.576 0 0 1 68 49.445v2.036a2.578 2.578 0 0 1-2.066 2.521ZM26.126 14.057c6.655 0 12.069 5.415 12.069 12.07 0 1.909-.457 3.811-1.324 5.5a1.073 1.073 0 1 1-1.91-.98 9.819 9.819 0 0 0 1.087-4.52c0-5.471-4.451-9.922-9.922-9.922-2.603 0-5.062 1-6.925 2.817a1.074 1.074 0 0 1-1.499-1.538 12 12 0 0 1 8.424-3.427Zm0 18.611a6.549 6.549 0 0 1-6.541-6.542 6.548 6.548 0 0 1 6.541-6.541 6.549 6.549 0 0 1 6.542 6.541 6.55 6.55 0 0 1-6.542 6.542Zm0-10.936a4.4 4.4 0 0 0-4.394 4.394 4.4 4.4 0 0 0 4.394 4.395 4.4 4.4 0 0 0 4.394-4.395 4.4 4.4 0 0 0-4.394-4.394Zm.001 14.316c2.104 0 4.114-.65 5.812-1.88a1.073 1.073 0 1 1 1.259 1.74 11.985 11.985 0 0 1-7.071 2.287c-6.655 0-12.07-5.414-12.07-12.069 0-1.345.221-2.666.655-3.928a1.072 1.072 0 1 1 2.03.698 9.891 9.891 0 0 0-.537 3.23c0 5.471 4.451 9.922 9.922 9.922Zm23.432-5.086-5.045 1.009a19.425 19.425 0 0 1-.989 2.494 1.073 1.073 0 0 1-1.936-.929c.428-.892.78-1.827 1.047-2.781.109-.389.427-.684.823-.763l5.679-1.136c.561-.112.968-.609.968-1.18v-3.099c0-.572-.407-1.068-.968-1.18l-5.679-1.136a1.073 1.073 0 0 1-.823-.763 17.089 17.089 0 0 0-1.562-3.771 1.072 1.072 0 0 1 .042-1.123l3.212-4.819a1.208 1.208 0 0 0-.15-1.519l-2.191-2.191a1.207 1.207 0 0 0-1.519-.15l-4.819 3.212a1.074 1.074 0 0 1-1.123.042 17.04 17.04 0 0 0-3.771-1.562 1.073 1.073 0 0 1-.763-.823l-1.136-5.679a1.206 1.206 0 0 0-1.18-.968h-3.099c-.571 0-1.068.407-1.18.968l-1.136 5.679a1.073 1.073 0 0 1-.763.823 17.04 17.04 0 0 0-3.771 1.562 1.07 1.07 0 0 1-1.122-.042l-4.82-3.212a1.208 1.208 0 0 0-1.519.15l-2.191 2.191a1.208 1.208 0 0 0-.15 1.519l3.212 4.819c.224.336.241.77.042 1.122a17.06 17.06 0 0 0-1.562 3.771 1.073 1.073 0 0 1-.823.763l-5.679 1.136a1.207 1.207 0 0 0-.968 1.181v3.098c0 .572.407 1.068.968 1.18l5.679 1.136c.396.079.714.374.823.764a17.053 17.053 0 0 0 1.562 3.77c.199.353.183.786-.042 1.123l-3.213 4.819a1.208 1.208 0 0 0 .151 1.519l2.191 2.191a1.208 1.208 0 0 0 1.519.151l4.819-3.213c.337-.224.77-.241 1.123-.042a17.053 17.053 0 0 0 3.77 1.562c.39.109.685.427.764.824l1.136 5.678c.112.561.608.968 1.18.968h3.098c.572 0 1.069-.407 1.181-.968l1.136-5.678c.079-.397.374-.715.763-.824.931-.26 1.844-.602 2.716-1.016a1.074 1.074 0 0 1 .921 1.941 19.16 19.16 0 0 1-2.421.953l-1.009 5.046a3.36 3.36 0 0 1-3.286 2.694h-3.099a3.36 3.36 0 0 1-3.286-2.694l-1.009-5.046a19.146 19.146 0 0 1-3.024-1.252l-4.282 2.854a3.36 3.36 0 0 1-4.228-.419l-2.191-2.191a3.36 3.36 0 0 1-.419-4.228l2.854-4.282a19.185 19.185 0 0 1-1.252-3.024l-5.046-1.009A3.362 3.362 0 0 1 0 27.676v-3.099a3.36 3.36 0 0 1 2.694-3.286l5.046-1.009c.33-1.042.75-2.054 1.252-3.024l-2.854-4.282a3.36 3.36 0 0 1 .419-4.228l2.191-2.191a3.36 3.36 0 0 1 4.228-.419l4.282 2.854a19.146 19.146 0 0 1 3.024-1.252l1.009-5.046A3.36 3.36 0 0 1 24.577 0h3.098a3.36 3.36 0 0 1 3.286 2.694l1.009 5.045c1.042.331 2.055.751 3.025 1.253l4.281-2.854a3.362 3.362 0 0 1 4.229.418l2.191 2.191a3.362 3.362 0 0 1 .418 4.229l-2.854 4.282a19.15 19.15 0 0 1 1.253 3.024l5.046 1.009a3.36 3.36 0 0 1 2.694 3.286v3.098a3.362 3.362 0 0 1-2.694 3.287Z" fill="#F5F5F5"/><path d="M50.463 54.328c.863 0 1.679-.278 2.361-.804a1.073 1.073 0 1 1 1.312 1.7 5.955 5.955 0 0 1-3.673 1.252 6.02 6.02 0 0 1-6.013-6.013 6.02 6.02 0 0 1 6.013-6.013 6.02 6.02 0 0 1 6.013 6.013 1.074 1.074 0 0 1-2.148 0 3.869 3.869 0 0 0-3.865-3.865 3.87 3.87 0 0 0-3.865 3.865 3.869 3.869 0 0 0 3.865 3.865Zm15.471-.326-3.105.62a12.96 12.96 0 0 1-.681 1.644l1.757 2.635a2.578 2.578 0 0 1-.321 3.243l-1.44 1.439a2.576 2.576 0 0 1-3.243.322l-2.635-1.757c-.531.264-1.081.492-1.643.681l-.621 3.105A2.578 2.578 0 0 1 51.481 68h-2.036a2.576 2.576 0 0 1-2.52-2.066l-.621-3.105a12.96 12.96 0 0 1-1.644-.681l-2.634 1.757a2.578 2.578 0 0 1-3.244-.322l-1.439-1.439a2.576 2.576 0 0 1-.322-3.243l1.757-2.635a13.008 13.008 0 0 1-.681-1.643l-3.104-.621a2.578 2.578 0 0 1-2.067-2.521v-2.036c0-1.221.869-2.281 2.066-2.52l.229-.046a1.073 1.073 0 1 1 .421 2.106l-.228.045a.425.425 0 0 0-.34.415v2.036c0 .201.143.376.34.415l3.731.746c.397.079.715.374.824.764.233.835.568 1.641.993 2.396.198.352.182.786-.043 1.123l-2.111 3.166a.425.425 0 0 0 .053.534l1.44 1.44a.425.425 0 0 0 .534.053l3.166-2.112c.337-.224.771-.24 1.123-.042.754.425 1.561.759 2.396.993.389.109.684.427.764.824l.746 3.731c.039.197.214.34.415.34h2.036a.425.425 0 0 0 .415-.34l.746-3.731c.079-.396.374-.715.763-.823a10.855 10.855 0 0 0 2.397-.993 1.07 1.07 0 0 1 1.122.042l3.167 2.111a.425.425 0 0 0 .534-.053l1.44-1.439a.425.425 0 0 0 .053-.534l-2.112-3.167a1.076 1.076 0 0 1-.042-1.123c.425-.754.759-1.56.993-2.396.109-.389.427-.684.823-.763l3.732-.747a.424.424 0 0 0 .34-.414v-2.037a.425.425 0 0 0-.34-.415l-3.731-.746a1.073 1.073 0 0 1-.824-.763 10.827 10.827 0 0 0-.993-2.396 1.076 1.076 0 0 1 .042-1.123l2.112-3.167a.425.425 0 0 0-.053-.534l-1.44-1.439a.423.423 0 0 0-.534-.053l-3.166 2.111a1.074 1.074 0 0 1-1.123.042 10.867 10.867 0 0 0-2.396-.993 1.076 1.076 0 0 1-.764-.823l-.746-3.732a.425.425 0 0 0-.415-.34h-2.036a.425.425 0 0 0-.415.34l-.746 3.732a1.073 1.073 0 0 1-.763.823c-.836.234-1.642.568-2.397.993a1.074 1.074 0 0 1-1.122-.042l-3.167-2.112a.425.425 0 0 0-.534.053l-1.44 1.44a.424.424 0 0 0-.052.534l2.111 3.167c.224.336.24.77.042 1.122a10.867 10.867 0 0 0-.993 2.396 1.073 1.073 0 1 1-2.068-.578c.22-.787.514-1.551.877-2.281l-1.756-2.635a2.577 2.577 0 0 1 .321-3.244l1.439-1.439a2.58 2.58 0 0 1 3.244-.321l2.635 1.756c.531-.264 1.08-.491 1.643-.68l.621-3.105a2.576 2.576 0 0 1 2.52-2.067h2.036c1.221 0 2.281.869 2.521 2.067l.62 3.105a12.81 12.81 0 0 1 1.644.68l2.634-1.756a2.58 2.58 0 0 1 3.244.321l1.44 1.439a2.58 2.58 0 0 1 .321 3.244l-1.757 2.635c.264.531.492 1.08.681 1.643l3.105.621A2.576 2.576 0 0 1 68 49.445v2.036a2.578 2.578 0 0 1-2.066 2.521ZM26.126 14.057c6.655 0 12.069 5.415 12.069 12.07 0 1.909-.457 3.811-1.324 5.5a1.073 1.073 0 1 1-1.91-.98 9.819 9.819 0 0 0 1.087-4.52c0-5.471-4.451-9.922-9.922-9.922-2.603 0-5.062 1-6.925 2.817a1.074 1.074 0 0 1-1.499-1.538 12 12 0 0 1 8.424-3.427Zm0 18.611a6.549 6.549 0 0 1-6.541-6.542 6.548 6.548 0 0 1 6.541-6.541 6.549 6.549 0 0 1 6.542 6.541 6.55 6.55 0 0 1-6.542 6.542Zm0-10.936a4.4 4.4 0 0 0-4.394 4.394 4.4 4.4 0 0 0 4.394 4.395 4.4 4.4 0 0 0 4.394-4.395 4.4 4.4 0 0 0-4.394-4.394Zm.001 14.316c2.104 0 4.114-.65 5.812-1.88a1.073 1.073 0 1 1 1.259 1.74 11.985 11.985 0 0 1-7.071 2.287c-6.655 0-12.07-5.414-12.07-12.069 0-1.345.221-2.666.655-3.928a1.072 1.072 0 1 1 2.03.698 9.891 9.891 0 0 0-.537 3.23c0 5.471 4.451 9.922 9.922 9.922Zm23.432-5.086-5.045 1.009a19.425 19.425 0 0 1-.989 2.494 1.073 1.073 0 0 1-1.936-.929c.428-.892.78-1.827 1.047-2.781.109-.389.427-.684.823-.763l5.679-1.136c.561-.112.968-.609.968-1.18v-3.099c0-.572-.407-1.068-.968-1.18l-5.679-1.136a1.073 1.073 0 0 1-.823-.763 17.089 17.089 0 0 0-1.562-3.771 1.072 1.072 0 0 1 .042-1.123l3.212-4.819a1.208 1.208 0 0 0-.15-1.519l-2.191-2.191a1.207 1.207 0 0 0-1.519-.15l-4.819 3.212a1.074 1.074 0 0 1-1.123.042 17.04 17.04 0 0 0-3.771-1.562 1.073 1.073 0 0 1-.763-.823l-1.136-5.679a1.206 1.206 0 0 0-1.18-.968h-3.099c-.571 0-1.068.407-1.18.968l-1.136 5.679a1.073 1.073 0 0 1-.763.823 17.04 17.04 0 0 0-3.771 1.562 1.07 1.07 0 0 1-1.122-.042l-4.82-3.212a1.208 1.208 0 0 0-1.519.15l-2.191 2.191a1.208 1.208 0 0 0-.15 1.519l3.212 4.819c.224.336.241.77.042 1.122a17.06 17.06 0 0 0-1.562 3.771 1.073 1.073 0 0 1-.823.763l-5.679 1.136a1.207 1.207 0 0 0-.968 1.181v3.098c0 .572.407 1.068.968 1.18l5.679 1.136c.396.079.714.374.823.764a17.053 17.053 0 0 0 1.562 3.77c.199.353.183.786-.042 1.123l-3.213 4.819a1.208 1.208 0 0 0 .151 1.519l2.191 2.191a1.208 1.208 0 0 0 1.519.151l4.819-3.213c.337-.224.77-.241 1.123-.042a17.053 17.053 0 0 0 3.77 1.562c.39.109.685.427.764.824l1.136 5.678c.112.561.608.968 1.18.968h3.098c.572 0 1.069-.407 1.181-.968l1.136-5.678c.079-.397.374-.715.763-.824.931-.26 1.844-.602 2.716-1.016a1.074 1.074 0 0 1 .921 1.941 19.16 19.16 0 0 1-2.421.953l-1.009 5.046a3.36 3.36 0 0 1-3.286 2.694h-3.099a3.36 3.36 0 0 1-3.286-2.694l-1.009-5.046a19.146 19.146 0 0 1-3.024-1.252l-4.282 2.854a3.36 3.36 0 0 1-4.228-.419l-2.191-2.191a3.36 3.36 0 0 1-.419-4.228l2.854-4.282a19.185 19.185 0 0 1-1.252-3.024l-5.046-1.009A3.362 3.362 0 0 1 0 27.676v-3.099a3.36 3.36 0 0 1 2.694-3.286l5.046-1.009c.33-1.042.75-2.054 1.252-3.024l-2.854-4.282a3.36 3.36 0 0 1 .419-4.228l2.191-2.191a3.36 3.36 0 0 1 4.228-.419l4.282 2.854a19.146 19.146 0 0 1 3.024-1.252l1.009-5.046A3.36 3.36 0 0 1 24.577 0h3.098a3.36 3.36 0 0 1 3.286 2.694l1.009 5.045c1.042.331 2.055.751 3.025 1.253l4.281-2.854a3.362 3.362 0 0 1 4.229.418l2.191 2.191a3.362 3.362 0 0 1 .418 4.229l-2.854 4.282a19.15 19.15 0 0 1 1.253 3.024l5.046 1.009a3.36 3.36 0 0 1 2.694 3.286v3.098a3.362 3.362 0 0 1-2.694 3.287Z" fill="url(#hb)"/></g><defs><linearGradient id="hb" x1="0" y1="6774.09" x2="592.688" y2="0" gradientUnits="userSpaceOnUse"><stop stop-color="#00C2FF"/><stop offset="1" stop-color="#0282DB"/></linearGradient><clipPath id="ha"><path fill="#fff" d="M0 0h68v68H0z"/></clipPath></defs></svg></svg>